<?xml version="1.0" standalone="no"?>
<!DOCTYPE svg PUBLIC "-//W3C//DTD SVG 20010904//EN"
 "http://www.w3.org/TR/2001/REC-SVG-20010904/DTD/svg10.dtd">
<svg version="1.0" xmlns="http://www.w3.org/2000/svg"
 width="602.000000pt" height="602.000000pt" viewBox="0 0 602.000000 602.000000"
 preserveAspectRatio="xMidYMid meet">
<metadata>
Created by potrace 1.11, written by Peter Selinger 2001-2013
</metadata>
<g transform="translate(0.000000,602.000000) scale(0.100000,-0.100000)"
fill="#000000" stroke="none">
<path d="M4000 4382 c-14 -4 -34 -12 -45 -19 -20 -11 -20 -24 -23 -1375 -2
-750 0 -1381 3 -1404 9 -61 31 -69 190 -69 95 0 139 4 158 14 l27 14 2 732 3
733 525 -715 c289 -393 540 -728 557 -743 42 -37 75 -43 226 -39 97 3 129 8
150 22 34 22 35 57 3 113 -13 23 -254 348 -536 723 -461 612 -511 682 -499
698 8 10 221 265 473 568 253 302 473 568 489 591 39 56 46 113 17 139 -19 17
-39 21 -139 23 -124 4 -183 -6 -223 -38 -14 -10 -254 -307 -534 -659 l-509
-640 -3 652 -2 652 -23 15 c-24 15 -241 24 -287 12z"/>
<path d="M573 4370 c-46 -11 -80 -35 -100 -73 -17 -30 -18 -111 -21 -1352 -2
-726 0 -1338 3 -1361 9 -61 31 -69 190 -69 95 0 139 4 158 14 l27 14 0 625 0
625 183 -6 c252 -9 346 -39 456 -148 104 -102 142 -179 355 -717 120 -302 153
-376 174 -390 35 -23 257 -30 317 -10 37 12 40 16 43 52 2 22 -4 60 -14 85
-32 87 -287 706 -327 796 -86 193 -201 340 -320 409 -26 15 -45 31 -42 35 2 5
26 16 52 26 171 65 330 199 405 341 54 103 78 209 78 349 0 213 -54 363 -179
497 -155 166 -358 241 -696 258 -214 11 -696 11 -742 0z m816 -321 c121 -20
231 -71 293 -136 15 -16 43 -63 63 -105 31 -69 36 -90 42 -186 7 -123 -4 -186
-48 -273 -35 -70 -125 -154 -204 -189 -112 -51 -180 -60 -454 -60 l-251 0 0
487 0 486 246 -6 c136 -4 276 -12 313 -18z"/>
</g>
</svg>
